<?xml version="1.0" encoding="UTF-8"?>
<svg id="a" xmlns="http://www.w3.org/2000/svg" width="420" height="100" viewBox="0 0 420 100">
  <path d="m383.96,78.44l2.89-8.9,2.92,8.9h9.42l-7.62,5.48,2.99,8.98-7.71-5.48-7.51,5.39,2.9-8.89-7.45-5.48h9.16Zm-11.34,0c-.36,1.31-.57,2.69-.57,4.12,0,8.18,6.64,14.81,14.82,14.81s14.83-6.63,14.83-14.81-6.64-14.83-14.83-14.83c-6.75,0-12.46,4.52-14.25,10.7" fill="#fff"/>
  <path d="m323.51,8.88c-3.83,0-7.36,0-11.53.01v8.86h43.15c4.03,0,4.2,7.19,0,7.19h-43.25l.1,10.28h43.24-.13c4.03,0,4.2,7.2,0,7.2h.13-43.33v4.07h15.83l1.36,6.2h26.11-.1c4.03,0,4.2,7.2,0,7.2h.1-24.65l2.01,10.28h22.59-.05c4.03,0,4.2,7.19,0,7.19h.05-21.15l1.92,9.52h32.35c-2.3-9.91,3.65-23.51,18.57-23.52,16.22-.02,21.07,15,18.47,23.52h9.92v-3.86h4.11v-12.34h-4.11v-10.28c0-6.68-4.12-10.28-9.77-11.83-5.65-1.54-21.6-4.97-22.11-5.65-1.54-2.06-5.32-7.71-7.71-11.32-2.63-3.94-3.77-4.11,3.6-4.11h23.14c5.48,0,5.05-2.15,3.08-4.11-1.28-1.28-8.73-9.25-11.82-12.34-3.1-3.09-15.77-2.23-22.44-2.23-.75,0-3.17,0-6.5,0v-1.57c-.01-1.27-1.73-2.3-3.83-2.3h-33.51c-2.11,0-3.82,1.03-3.82,2.3,0,0-.02,1.61-.02,1.61Z" fill="#fff"/>
  <path d="m94.97,17.75H11.24v-.12c2.64-4.73,7.2-8.45,13.94-8.45,5.19,0,34.08-.03,70.5-.06,0,0-.7,5.83-.7,8.63" fill="#fff"/>
  <path d="m94.88,24.95H8.73l-.04-.05c-.21,1.25-.32,2.48-.32,3.65v6.65l.06.03h86.24s.21-10.28.21-10.28Z" fill="#fff"/>
  <polygon points="76.44 52.71 8.94 52.71 8.37 52.63 8.37 42.41 9.53 42.43 94.58 42.43 94.58 46.62 77.52 46.62 76.44 52.71" fill="#fff"/>
  <path d="m75.07,59.92H8.73l-.69-.12c-.57,4.04-1.81,7.57-3.11,10.39h1.21s66.97.01,66.97.01l1.96-10.28Z" fill="#fff"/>
  <path d="m29.43,86.9c1.29,7.45,7.79,13.1,15.6,13.1s14.3-5.65,15.59-13.1h9.23s1.91-9.51,1.91-9.51H1.72l-1.06-.12v9.64s28.76,0,28.76,0Z" fill="#fff"/>
  <path d="m119.54,15.43c0-1.92.39-5.23-2.69-5.23s-2.69,3.3-2.69,5.23v18.21c0,1.92-.39,5.22,2.69,5.22s2.69-3.3,2.69-5.22v-5.34h14.2v15.74c-3.8,3.14-9.9,4.84-15.85,5-5.89.17-11.61-1.16-14.51-3.9-4.08-3.8-3.92-8.75-3.92-13.92V14.83c0-4.24.56-8.36,4.02-11.22C106.67.96,111.9-.19,117.45.03c5.61.22,11.56,1.97,16.29,5.12v13.09h-14.2s0-2.8,0-2.8Z" fill="#fff"/>
  <path d="m152.57,35.12c0,1.76-.16,3.52,1.59,4.62v8.37h-17.88v-8.37c1.77-1.1,1.6-2.86,1.6-4.62V13.95c0-1.76.17-3.52-1.6-4.62V.96h20.42c3.63,0,8.19-.06,11.38,1.86,3.85,2.26,5.17,6.28,5.17,10.57,0,5.18-1.54,9.69-7.04,11.06v.1c4.63,1.1,6.17,3.09,6.17,7.87v2.69c0,1.6,0,3.91,1.81,4.62v8.37h-15.79c-.62-2.6-.99-4.79-.83-12.66,0-3.73-.39-5.61-4.41-5.72h-.6v5.39Zm0-14.8h1.49c3.19,0,4.18-1.65,4.18-4.96,0-3.02-.99-4.67-4.18-4.67h-1.49v9.63Z" fill="#fff"/>
  <path d="m195.19.96h17.06v8.36c-1.99,1.1-1.81,2.86-1.81,4.62v19.09c-.11,5-.5,8.96-4.52,12.48-3.47,3.03-8.25,3.52-12.49,3.52s-9.02-.49-12.49-3.52c-4.02-3.52-4.4-7.48-4.51-12.48V13.95c0-1.76.17-3.52-1.59-4.62V.96h17.88v8.36c-1.77,1.1-1.6,2.86-1.6,4.62v21.51c0,.93.21,3.36,2.91,3.36s2.92-2.42,2.92-3.36V13.95c-.05-1.76.11-3.52-1.77-4.62V.96h0Z" fill="#fff"/>
  <path d="m216.12,13.94c0-1.76.17-3.52-1.6-4.62V.96h17.87v8.36c-1.75,1.1-1.59,2.86-1.59,4.62v21.18c0,1.76-.16,3.52,1.59,4.62v8.37h-17.87v-8.37c1.76-1.1,1.6-2.86,1.6-4.62V13.94Z" fill="#fff"/>
  <path d="m254.8,15.21c0-2.09-.06-5.01-2.92-5.01-1.86,0-2.86,1.38-2.86,3.13,0,.94.11,1.87.88,2.65.83.88,2.92,1.53,4.13,1.87,3.51.94,8.24,2.19,11.22,4.17,1.7,1.16,2.97,2.53,3.63,4.51.77,2.04,1.09,4.29,1.09,6.49v.22c0,9.07-4.01,15.79-18.04,15.79-5.99,0-12.32-1.16-17.11-4.95v-12.65h14.36c0,2.81-.06,4.9.44,5.89.5.93,1.55,1.54,2.65,1.54,1.98,0,2.86-1.93,2.86-3.64,0-4.84-3.03-5.22-7.1-6.21-8.92-2.2-13.93-4.35-13.93-14.52v-1.04c.22-5.06,1.05-7.6,4.9-10.51C242.14.58,246.71.03,251.11.03c6.38,0,12.04,1.27,17.38,4.95v11.11h-13.69v-.88Z" fill="#fff"/>
  <path d="m307.01,31.05v17.06h-35.33v-8.37c1.77-1.1,1.6-2.86,1.6-4.62V13.95c0-1.76.17-3.52-1.6-4.62V.96h35.33v15.96h-13.54v-1.44c0-3.19-.43-4.51-4.4-4.51h-.88v8.42h9.29v9.18h-9.29v9.51h.88c4.4,0,4.34-1.64,4.4-5.5v-1.54s13.54,0,13.54,0Z" fill="#fff"/>
  <path d="m136.91,71.02h.11l4.94-19.31h18.06v8.37c-1.76,1.1-1.61,2.86-1.61,4.62v21.18c0,1.76-.16,3.52,1.61,4.62v8.36h-17.23v-8.36c1.76-1.1,1.6-2.86,1.6-4.62v-12.65h-.1l-6.38,25.64h-4.63l-6.71-25.64h-.11v12.65c0,1.76-.16,3.52,1.6,4.62v8.36h-14.52v-8.36c1.76-1.1,1.59-2.86,1.59-4.62v-21.18c0-1.76.17-3.52-1.59-4.62v-8.37h18.54l4.84,19.31Z" fill="#fff"/>
  <path d="m197.45,81.8v17.06h-35.32v-8.37c1.76-1.1,1.59-2.86,1.59-4.62v-21.18c0-1.77.17-3.52-1.59-4.62v-8.36h35.32v15.96h-13.53v-1.43c0-3.19-.45-4.51-4.41-4.51h-.88v8.42h9.3v9.18h-9.3v9.52h.88c4.41,0,4.35-1.65,4.41-5.5v-1.55h13.53Z" fill="#fff"/>
  <path d="m215.8,85.87c0,1.76-.17,3.52,1.6,4.62v8.37h-17.88v-8.37c1.76-1.1,1.59-2.86,1.59-4.62v-21.18c0-1.76.17-3.52-1.59-4.62v-8.36h20.41c3.63,0,8.19-.05,11.39,1.87,3.85,2.25,5.17,6.27,5.17,10.57,0,5.17-1.54,9.68-7.04,11.06v.11c4.63,1.1,6.16,3.08,6.16,7.86v2.7c0,1.59,0,3.9,1.82,4.62v8.37h-15.79c-.61-2.59-.99-4.79-.83-12.66,0-3.74-.39-5.61-4.41-5.72h-.6v5.39h0Zm0-14.8h1.49c3.19,0,4.18-1.65,4.18-4.95,0-3.03-.99-4.67-4.18-4.67h-1.49v9.62Z" fill="#fff"/>
  <path d="m241.23,64.69c0-1.76.17-3.52-1.59-4.62v-8.37h17.88v8.37c-1.76,1.1-1.6,2.86-1.6,4.62v21.18c0,1.76-.17,3.52,1.6,4.62v8.37h-17.88v-8.37c1.76-1.1,1.59-2.86,1.59-4.62v-21.18h0Z" fill="#fff"/>
  <path d="m278.84,66.18c0-1.92.38-5.23-2.7-5.23s-2.69,3.31-2.69,5.23v18.21c0,1.93-.39,5.23,2.69,5.23s2.7-3.3,2.7-5.23v-5.33h14.19v15.72c-3.8,3.14-9.9,4.84-15.85,5.01-5.89.17-11.6-1.16-14.51-3.91-4.07-3.8-3.92-8.75-3.92-13.92v-16.38c0-4.24.56-8.37,4.03-11.22,3.19-2.65,8.42-3.8,13.98-3.59,5.61.22,11.55,1.99,16.29,5.12v13.09h-14.19v-2.81h0Z" fill="#fff"/>
  <path d="m340.8,99.65c-2.64,0-4.64-2.01-4.64-4.64s2-4.64,4.64-4.64,4.64,2.01,4.64,4.64-2.01,4.64-4.64,4.64m0-8.46c-2.17,0-3.82,1.65-3.82,3.82s1.64,3.82,3.82,3.82,3.82-1.65,3.82-3.82-1.64-3.82-3.82-3.82m1.21,4.27l.98,1.99h-1.21l-.91-1.85h-.88v1.85h-1.07v-5.07h2.35c.98,0,1.74.52,1.74,1.59,0,.88-.47,1.28-1.01,1.48m-.81-2.1h-1.21v1.3h1.21c.46,0,.72-.23.72-.65,0-.45-.27-.64-.72-.64" fill="#fff"/>
  <path d="m108.91,85.87l-6.88-34.16h-20.9l-6.22,33.45c-.44,1.81-.61,4.24-2.19,5.33v8.37h16.22v-8.37c-1.26-.32-1.92-1.26-1.92-2.58,0-.45.11-.94.22-1.37h7.09c.11.43.23.88.23,1.37,0,1.26-.56,2.14-1.72,2.58v8.37h18.55v-8.37c-1.66-.5-2.2-3.13-2.48-4.62m-20.78-8.5l2.34-14.03h.11l2.43,14.03h-4.87Z" fill="#fff"/>
  <path d="m331.26,85.87l-6.88-34.16h-20.9l-6.22,33.45c-.44,1.81-.61,4.24-2.19,5.33v8.37h16.22v-8.37c-1.26-.32-1.92-1.26-1.92-2.58,0-.45.11-.94.22-1.37h7.09c.11.43.23.88.23,1.37,0,1.26-.56,2.14-1.71,2.58v8.37h18.55v-8.37c-1.66-.5-2.2-3.13-2.48-4.62m-20.78-8.5l2.33-14.03h.11l2.43,14.03h-4.87Z" fill="#fff"/>
</svg>